<svg width="1922" height="842" viewBox="0 0 1922 842" fill="none" xmlns="http://www.w3.org/2000/svg">
<g clip-path="url(#clip0_5_4230)">
<path d="M1926.01 148C1885.16 152.172 1768.02 161.953 1680.94 173.03C1593.86 184.108 1495.98 195.186 1403.51 214.466C1311.03 233.746 1229.34 274.9 1126.07 288.712C1022.8 302.524 887.17 288.994 783.903 297.337C680.636 305.681 598.946 319.493 506.468 338.773C413.99 358.053 316.117 396.473 229.034 413.019C141.95 429.566 24.8111 433.878 -16.0334 438.05V887H1926.01V148Z" fill="url(#paint0_linear_5_4230)"/>
<path d="M1830.81 228C1784.64 238.642 1661.52 278.393 1553.78 291.854C1446.05 305.315 1287.02 292.698 1184.41 308.767C1081.81 324.836 1040.77 372.199 938.169 388.268C835.567 404.337 671.403 394.328 568.8 405.181C466.198 416.034 420.027 434.711 322.555 453.388C225.082 472.065 40.3979 506.6 -16.0334 517.242V870H1830.81V228Z" fill="url(#paint1_linear_5_4230)"/>
<path d="M1926.01 228C1866.67 235.821 1694.04 256.547 1569.97 274.925C1445.89 293.302 1321.82 311.68 1181.56 338.267C1041.3 364.854 868.674 407.859 728.416 434.446C588.157 461.033 464.083 479.411 340.008 497.788C215.933 516.166 43.3068 536.892 -16.0334 544.713V887H1926.01V228Z" fill="url(#paint2_linear_5_4230)"/>
<path d="M1926.01 294C1866.67 307.733 1694.04 357.139 1569.97 376.396C1445.89 395.653 1311.03 393.022 1181.56 409.543C1052.09 426.064 922.62 448.057 793.151 475.523C663.681 502.988 539.606 549.606 404.742 574.335C269.878 599.064 54.0959 615.638 -16.0334 623.898V887H1926.01V294Z" fill="url(#paint3_linear_5_4230)"/>
<path d="M1926.01 411C1885.16 421.911 1768.02 462.856 1680.94 476.465C1593.86 490.075 1506.77 476.31 1403.51 492.657C1300.24 509.004 1164.6 552.725 1061.34 574.546C958.07 596.368 865.592 612.715 783.903 623.587C702.214 634.459 652.892 623.432 571.203 639.779C489.514 656.126 391.641 702.584 293.768 721.669C195.896 740.753 35.6003 748.849 -16.0334 754.285V887H1926.01V411Z" fill="url(#paint4_linear_5_4230)"/>
<path d="M1926.01 477C1877.46 484.165 1737.2 502.923 1634.7 519.99C1532.21 537.057 1418.92 554.125 1311.03 579.403C1203.14 604.682 1095.25 651.858 987.355 671.662C879.464 691.467 782.362 678.425 663.681 698.229C545.001 718.034 388.559 767.947 275.273 790.489C161.987 813.03 32.5176 826.314 -16.0334 833.479V887H1926.01V477Z" fill="url(#paint5_linear_5_4230)"/>
</g>
<defs>
<linearGradient id="paint0_linear_5_4230" x1="954.987" y1="148" x2="954.987" y2="887" gradientUnits="userSpaceOnUse">
<stop stop-color="#4D4D4D"/>
<stop offset="1"/>
</linearGradient>
<linearGradient id="paint1_linear_5_4230" x1="907.388" y1="228" x2="907.388" y2="870" gradientUnits="userSpaceOnUse">
<stop stop-color="#4D4D4D"/>
<stop offset="1"/>
</linearGradient>
<linearGradient id="paint2_linear_5_4230" x1="954.987" y1="228" x2="954.987" y2="887" gradientUnits="userSpaceOnUse">
<stop stop-color="#4D4D4D"/>
<stop offset="1"/>
</linearGradient>
<linearGradient id="paint3_linear_5_4230" x1="954.987" y1="294" x2="954.987" y2="887" gradientUnits="userSpaceOnUse">
<stop stop-color="#4D4D4D"/>
<stop offset="1"/>
</linearGradient>
<linearGradient id="paint4_linear_5_4230" x1="954.987" y1="411" x2="954.987" y2="887" gradientUnits="userSpaceOnUse">
<stop stop-color="#4D4D4D"/>
<stop offset="1"/>
</linearGradient>
<linearGradient id="paint5_linear_5_4230" x1="954.987" y1="477" x2="954.987" y2="887" gradientUnits="userSpaceOnUse">
<stop stop-color="#4D4D4D"/>
<stop offset="1"/>
</linearGradient>
<clipPath id="clip0_5_4230">
<rect width="1922" height="842" fill="white" transform="matrix(-1 0 0 1 1922 0)"/>
</clipPath>
</defs>
</svg>
